# xmcd
#
# Track frame offsets: 
#        150
#        3780
#        25395
#        47497
#        69320
#        85572
#        106682
#        126777
#        150070
#        172465
#        192905
#        214737
#        219842
#        238320
#        256915
#        280882
#
# Disc length: 3995 seconds
#
# Revision: 1
# Processed by: cddbd v1.5PL3 Copyright (c) Steve Scherf et al.
# Submitted via: ExactAudioCopy v0.95a5
#
DISCID=cc0f9910
DTITLE=Brandy - Never Say Never
DYEAR=1998
DGENRE=R&B
TTITLE0=Intro
TTITLE1=Angel In Disguise
TTITLE2=The Boy Is Mine (Feat. Monica)
TTITLE3=Learn The Hard Way
TTITLE4=Almost Doesn't Count
TTITLE5=Top Of The World (Feat. Mase)
TTITLE6=U Don't Know Me (Like U Used To)
TTITLE7=Never Say Never
TTITLE8=Truthfully
TTITLE9=Have You Ever?
TTITLE10=Put That On Everything
TTITLE11=In The Car Interlude
TTITLE12=Happy
TTITLE13=One Voice
TTITLE14=Tomorrow
TTITLE15=(Everything I Do) I Do It For You
EXTD=
EXTT0=
EXTT1=
EXTT2=
EXTT3=
EXTT4=
EXTT5=
EXTT6=
EXTT7=
EXTT8=
EXTT9=
EXTT10=
EXTT11=
EXTT12=
EXTT13=
EXTT14=
EXTT15=
PLAYORDER=
